# Blender v2.90.1 OBJ File: 'untitled.blend'
# www.blender.org
mtllib object.mtl
o missile_Cone
v 0.208603 3.118248 0.208603
v 1.068323 -2.476775 1.068323
v 0.708885 -1.591747 0.425246
v 0.425246 -1.591747 0.708885
v 0.708885 2.233220 0.425246
v 0.425246 2.233220 0.708885
v 1.068323 -0.572145 1.068323
v 0.425246 0.453874 0.708885
v 0.708885 0.453874 0.425246
v -0.208603 3.118248 0.208603
v 0.000000 2.233220 0.885028
v 0.000000 3.118248 0.295009
v -1.068323 -2.476775 1.068323
v 0.000000 -1.591747 0.885028
v -0.708885 -1.591747 0.425246
v -0.425246 -1.591747 0.708885
v -0.708885 2.233220 0.425246
v -0.425246 2.233220 0.708885
v -1.068323 -0.572145 1.068323
v -0.425246 0.453874 0.708885
v -0.708885 0.453874 0.425246
v 0.885028 2.233220 0.000000
v 0.295009 3.118248 0.000000
v 0.208603 3.118248 -0.208603
v 0.885028 -1.591747 0.000000
v 1.068323 -2.476775 -1.068323
v 0.708885 -1.591747 -0.425246
v 0.425246 -1.591747 -0.708885
v 0.708885 2.233220 -0.425246
v 0.425246 2.233220 -0.708885
v 1.068323 -0.572145 -1.068323
v 0.425246 0.453874 -0.708885
v 0.708885 0.453874 -0.425246
v -0.885028 2.233220 0.000000
v -0.295009 3.118248 0.000000
v -0.208603 3.118248 -0.208603
v 0.000000 2.233220 -0.885028
v 0.000000 3.118248 -0.295009
v -0.885028 -1.591747 0.000000
v -1.068323 -2.476775 -1.068323
v 0.000000 -1.591747 -0.885028
v 0.000000 3.118248 0.000000
v 0.000000 -1.591747 0.000000
v -0.708885 -1.591747 -0.425246
v -0.425246 -1.591747 -0.708885
v -0.708885 2.233220 -0.425246
v -0.425246 2.233220 -0.708885
v -1.068323 -0.572145 -1.068323
v -0.425246 0.453874 -0.708885
v -0.708885 0.453874 -0.425246
vt 0.000000 0.000000
vt 0.000000 0.000000
vt 0.000000 0.000000
vt 0.500000 1.000000
vt 0.660783 -0.186801
vt 0.589179 -0.180653
vt 0.620182 0.223175
vt 0.000000 0.000000
vt 0.625000 1.000000
vt 0.750000 1.000000
vt 0.665061 0.500000
vt 0.584939 0.500000
vt 0.665061 0.500000
vt 0.000000 0.000000
vt 0.665061 0.500000
vt 0.584939 0.500000
vt 0.750000 0.500000
vt 0.500000 0.500000
vt 0.750000 0.500000
vt 0.656832 -0.821087
vt 0.629818 0.223175
vt 0.593168 -0.821087
vt 0.647992 -0.821087
vt 0.000000 0.000000
vt 0.000000 0.000000
vt 0.000000 0.000000
vt 0.660783 -0.186801
vt 0.620182 0.223175
vt 0.589179 -0.180653
vt 0.625000 1.000000
vt 0.584939 0.500000
vt 0.665061 0.500000
vt 0.665061 0.500000
vt 0.584939 0.500000
vt 0.665061 0.500000
vt 0.750000 0.500000
vt 0.500000 0.500000
vt 0.750000 1.000000
vt 0.656832 -0.821087
vt 0.629818 0.223175
vt 0.593168 -0.821087
vt 0.000000 0.000000
vt 0.000000 0.000000
vt 0.000000 0.000000
vt 0.500000 1.000000
vt 0.660783 -0.186801
vt 0.620182 0.223175
vt 0.589179 -0.180653
vt 0.625000 1.000000
vt 0.584939 0.500000
vt 0.665061 0.500000
vt 0.665061 0.500000
vt 0.584939 0.500000
vt 0.665061 0.500000
vt 0.500000 0.500000
vt 0.500000 0.500000
vt 0.656832 -0.821087
vt 0.629818 0.223175
vt 0.593168 -0.821087
vt 0.000000 0.000000
vt 0.000000 0.000000
vt 0.000000 0.000000
vt 0.660783 -0.186801
vt 0.589179 -0.180653
vt 0.620182 0.223175
vt 0.625000 1.000000
vt 0.665061 0.500000
vt 0.584939 0.500000
vt 0.665061 0.500000
vt 0.665061 0.500000
vt 0.584939 0.500000
vt 0.750000 0.500000
vt 0.656832 -0.821087
vt 0.629818 0.223175
vt 0.593168 -0.821087
vt 0.647992 -0.821087
vt 0.625000 0.500000
vt 0.584939 0.500000
vt 0.602008 -0.821087
vt 0.625000 0.500000
vt 0.584939 0.500000
vt 0.602008 -0.821087
vt 0.647992 -0.821087
vt 0.625000 0.500000
vt 0.584939 0.500000
vt 0.602008 -0.821087
vt 0.647992 -0.821087
vt 0.625000 0.500000
vt 0.584939 0.500000
vt 0.602008 -0.821087
vn 0.6136 0.4970 0.6136
vn 0.3258 0.5244 0.7866
vn 0.5818 0.5684 0.5818
vn -0.0000 1.0000 -0.0000
vn 0.7071 0.0000 0.7071
vn 0.0000 -1.0000 0.0000
vn 0.9239 0.0000 0.3827
vn 0.3827 0.0000 0.9239
vn 0.7866 0.5244 0.3258
vn 0.8729 0.0000 -0.4879
vn -0.4879 0.0000 0.8729
vn -0.6136 0.4970 0.6136
vn -0.3258 0.5244 0.7866
vn -0.5818 0.5684 0.5818
vn -0.7071 0.0000 0.7071
vn -0.9239 0.0000 0.3827
vn -0.3827 0.0000 0.9239
vn -0.7866 0.5244 0.3258
vn -0.8729 0.0000 -0.4879
vn 0.4879 -0.0000 0.8729
vn 0.6136 0.4970 -0.6136
vn 0.3258 0.5244 -0.7866
vn 0.5818 0.5684 -0.5818
vn 0.7071 0.0000 -0.7071
vn 0.9239 0.0000 -0.3827
vn 0.3827 0.0000 -0.9239
vn 0.7866 0.5244 -0.3258
vn 0.8729 0.0000 0.4879
vn -0.4879 -0.0000 -0.8729
vn -0.6136 0.4970 -0.6136
vn -0.3258 0.5244 -0.7866
vn -0.5818 0.5684 -0.5818
vn -0.7071 0.0000 -0.7071
vn -0.9239 0.0000 -0.3827
vn -0.3827 0.0000 -0.9239
vn -0.7866 0.5244 -0.3258
vn -0.8729 0.0000 0.4879
vn 0.4879 0.0000 -0.8729
vn -0.5519 -0.6252 -0.5519
vn 0.5519 -0.6252 -0.5519
vn -0.5519 -0.6252 0.5519
vn 0.5519 -0.6252 0.5519
usemtl None
s off
f 5/1/1 1/2/1 6/3/1
f 12/4/2 6/3/2 1/2/2
f 9/5/3 8/6/3 7/7/3
f 42/8/4 1/9/4 23/10/4
f 5/11/5 8/12/5 9/13/5
f 43/14/6 3/15/6 4/16/6
f 9/13/7 3/15/7 25/17/7
f 14/18/8 4/16/8 8/12/8
f 23/10/9 5/1/9 22/19/9
f 7/7/10 3/20/10 9/5/10
f 7/21/11 4/22/11 2/23/11
f 17/24/12 18/25/12 10/26/12
f 18/25/13 12/4/13 10/26/13
f 21/27/14 19/28/14 20/29/14
f 42/8/4 10/30/4 12/4/4
f 20/31/15 17/32/15 21/33/15
f 16/34/6 15/35/6 43/14/6
f 39/36/16 15/35/16 21/33/16
f 20/31/17 14/18/17 11/37/17
f 35/38/18 17/24/18 10/30/18
f 15/39/19 19/28/19 21/27/19
f 19/40/20 16/41/20 20/29/20
f 29/42/21 30/43/21 24/44/21
f 30/43/22 38/45/22 24/44/22
f 33/46/23 31/47/23 32/48/23
f 42/8/4 24/49/4 38/45/4
f 32/50/24 29/51/24 33/52/24
f 28/53/6 27/54/6 43/14/6
f 25/17/25 27/54/25 33/52/25
f 32/50/26 41/55/26 37/56/26
f 23/10/27 29/42/27 24/49/27
f 27/57/28 31/47/28 33/46/28
f 31/58/29 28/59/29 32/48/29
f 46/60/30 36/61/30 47/62/30
f 38/45/31 47/62/31 36/61/31
f 50/63/32 49/64/32 48/65/32
f 42/8/4 36/66/4 35/38/4
f 46/67/33 49/68/33 50/69/33
f 43/14/6 44/70/6 45/71/6
f 50/69/34 44/70/34 39/36/34
f 41/55/35 45/71/35 49/68/35
f 35/38/36 46/60/36 34/72/36
f 48/65/37 44/73/37 50/63/37
f 48/74/38 45/75/38 40/76/38
f 12/4/2 11/37/2 6/3/2
f 42/8/4 12/4/4 1/9/4
f 5/11/5 6/3/5 8/12/5
f 4/16/6 14/18/6 43/14/6
f 43/14/6 25/17/6 3/15/6
f 3/15/39 2/77/39 4/16/39
f 25/17/7 22/19/7 9/13/7
f 22/19/7 5/11/7 9/13/7
f 8/12/8 6/78/8 11/37/8
f 11/37/8 14/18/8 8/12/8
f 23/10/9 1/9/9 5/1/9
f 7/7/10 2/79/10 3/20/10
f 7/21/11 8/6/11 4/22/11
f 18/25/13 11/37/13 12/4/13
f 42/8/4 35/38/4 10/30/4
f 20/31/15 18/25/15 17/32/15
f 43/14/6 14/18/6 16/34/6
f 16/34/40 13/80/40 15/35/40
f 15/35/6 39/36/6 43/14/6
f 17/32/16 34/72/16 21/33/16
f 34/72/16 39/36/16 21/33/16
f 11/37/17 18/81/17 20/31/17
f 20/31/17 16/34/17 14/18/17
f 35/38/18 34/72/18 17/24/18
f 15/39/19 13/82/19 19/28/19
f 19/40/20 13/83/20 16/41/20
f 30/43/22 37/56/22 38/45/22
f 42/8/4 23/10/4 24/49/4
f 32/50/24 30/43/24 29/51/24
f 43/14/6 41/55/6 28/53/6
f 28/53/41 26/84/41 27/54/41
f 27/54/6 25/17/6 43/14/6
f 29/51/25 22/19/25 33/52/25
f 22/19/25 25/17/25 33/52/25
f 37/56/26 30/85/26 32/50/26
f 32/50/26 28/53/26 41/55/26
f 23/10/27 22/19/27 29/42/27
f 27/57/28 26/86/28 31/47/28
f 31/58/29 26/87/29 28/59/29
f 38/45/31 37/56/31 47/62/31
f 42/8/4 38/45/4 36/66/4
f 46/67/33 47/62/33 49/68/33
f 45/71/6 41/55/6 43/14/6
f 43/14/6 39/36/6 44/70/6
f 44/70/42 40/88/42 45/71/42
f 39/36/34 34/72/34 50/69/34
f 34/72/34 46/67/34 50/69/34
f 49/68/35 47/89/35 37/56/35
f 37/56/35 41/55/35 49/68/35
f 35/38/36 36/66/36 46/60/36
f 48/65/37 40/90/37 44/73/37
f 48/74/38 49/64/38 45/75/38
