# Blender v2.90.1 OBJ File: 'untitled.blend'
# www.blender.org
mtllib object.mtl
o cube_spiked_Cube_Cube.001
v -0.045666 0.562674 -0.552001
v 0.552102 -0.035094 -0.552001
v -0.045666 -0.035094 -0.488082
v 0.552102 0.562674 0.045767
v 0.488184 -0.035094 0.045767
v -0.045666 0.498755 0.045767
v 0.662278 0.672849 -0.662176
v 0.045666 0.562674 -0.552001
v -0.552102 -0.035094 -0.552001
v 0.045666 -0.035094 -0.488082
v -0.552102 0.562674 0.045767
v -0.488184 -0.035094 0.045767
v 0.045666 0.498755 0.045767
v -0.662278 0.672849 -0.662176
v -0.045666 -0.562673 -0.552001
v 0.552102 0.035095 -0.552001
v -0.045666 0.035095 -0.488082
v 0.552102 -0.562674 0.045767
v 0.488184 0.035094 0.045767
v -0.045666 -0.498755 0.045767
v 0.662278 -0.672849 -0.662177
v 0.045666 -0.562673 -0.552001
v -0.552102 0.035095 -0.552001
v 0.045666 0.035095 -0.488082
v -0.552102 -0.562674 0.045767
v -0.488184 0.035094 0.045767
v 0.045666 -0.498755 0.045767
v -0.662278 -0.672849 -0.662177
v -0.045666 0.562673 0.552001
v 0.552102 -0.035095 0.552001
v -0.045666 -0.035095 0.488082
v 0.552102 0.562674 -0.045767
v 0.488184 -0.035094 -0.045767
v -0.045666 0.498755 -0.045767
v 0.662278 0.672849 0.662177
v 0.045666 0.562673 0.552001
v -0.552102 -0.035095 0.552001
v 0.045666 -0.035095 0.488082
v -0.552102 0.562674 -0.045767
v -0.488184 -0.035094 -0.045767
v 0.045666 0.498755 -0.045767
v -0.662278 0.672849 0.662177
v -0.045666 -0.562674 0.552001
v 0.552102 0.035094 0.552001
v -0.045666 0.035094 0.488082
v 0.552102 -0.562674 -0.045767
v 0.488184 0.035094 -0.045767
v -0.045666 -0.498755 -0.045767
v 0.662278 -0.672849 0.662176
v 0.045666 -0.562674 0.552001
v -0.552102 0.035094 0.552001
v 0.045666 0.035094 0.488082
v -0.552102 -0.562674 -0.045767
v -0.488184 0.035094 -0.045767
v 0.045666 -0.498755 -0.045767
v -0.662278 -0.672849 0.662176
vt 0.500000 0.500000
vt 0.625000 0.625000
vt 0.500000 0.625000
vt 0.750000 0.500000
vt 0.625000 0.500000
vt 0.625000 0.375000
vt 0.500000 0.375000
vt 0.500000 0.500000
vt 0.625000 0.625000
vt 0.625000 0.500000
vt 0.750000 0.500000
vt 0.750000 0.625000
vt 0.625000 0.375000
vt 0.500000 0.500000
vt 0.625000 0.625000
vt 0.625000 0.500000
vt 0.750000 0.500000
vt 0.750000 0.625000
vt 0.625000 0.375000
vt 0.500000 0.500000
vt 0.625000 0.625000
vt 0.500000 0.625000
vt 0.750000 0.500000
vt 0.625000 0.500000
vt 0.625000 0.375000
vt 0.500000 0.375000
vt 0.500000 0.500000
vt 0.625000 0.625000
vt 0.625000 0.500000
vt 0.750000 0.500000
vt 0.750000 0.625000
vt 0.625000 0.375000
vt 0.500000 0.500000
vt 0.625000 0.625000
vt 0.500000 0.625000
vt 0.750000 0.500000
vt 0.625000 0.500000
vt 0.625000 0.375000
vt 0.500000 0.375000
vt 0.500000 0.500000
vt 0.625000 0.625000
vt 0.500000 0.625000
vt 0.750000 0.500000
vt 0.625000 0.500000
vt 0.625000 0.375000
vt 0.500000 0.375000
vt 0.500000 0.500000
vt 0.625000 0.625000
vt 0.625000 0.500000
vt 0.750000 0.500000
vt 0.750000 0.625000
vt 0.625000 0.375000
vt 0.750000 0.625000
vt 0.500000 0.625000
vt 0.500000 0.375000
vt 0.500000 0.625000
vt 0.500000 0.375000
vt 0.750000 0.625000
vt 0.500000 0.625000
vt 0.500000 0.375000
vt 0.750000 0.625000
vt 0.750000 0.625000
vt 0.500000 0.625000
vt 0.500000 0.375000
vn 0.9862 -0.1187 0.1150
vn 0.9908 -0.1066 0.0835
vn 0.9918 -0.0904 0.0904
vn -0.1186 0.9862 0.1152
vn -0.1481 0.9798 0.1342
vn -0.1433 0.9792 0.1433
vn -0.1187 -0.1150 -0.9862
vn -0.1066 -0.0835 -0.9908
vn -0.0904 -0.0904 -0.9918
vn -0.9798 -0.1342 0.1481
vn -0.9862 -0.1152 0.1186
vn -0.9792 -0.1433 0.1433
vn 0.0835 0.9908 0.1066
vn 0.1150 0.9862 0.1187
vn 0.0904 0.9918 0.0904
vn 0.1342 -0.1481 -0.9798
vn 0.1152 -0.1186 -0.9862
vn 0.1433 -0.1433 -0.9792
vn 0.9798 0.1342 0.1481
vn 0.9862 0.1152 0.1186
vn 0.9792 0.1433 0.1433
vn -0.0835 -0.9908 0.1066
vn -0.1150 -0.9862 0.1187
vn -0.0904 -0.9918 0.0904
vn -0.1342 0.1481 -0.9798
vn -0.1152 0.1186 -0.9862
vn -0.1433 0.1433 -0.9792
vn -0.9862 0.1187 0.1150
vn -0.9908 0.1066 0.0835
vn -0.9918 0.0904 0.0904
vn 0.1186 -0.9862 0.1152
vn 0.1481 -0.9798 0.1342
vn 0.1433 -0.9792 0.1433
vn 0.1187 0.1150 -0.9862
vn 0.1066 0.0835 -0.9908
vn 0.0904 0.0904 -0.9918
vn 0.9798 -0.1342 -0.1481
vn 0.9862 -0.1152 -0.1186
vn 0.9792 -0.1433 -0.1433
vn -0.0835 0.9908 -0.1066
vn -0.1150 0.9862 -0.1187
vn -0.0904 0.9918 -0.0904
vn -0.1342 -0.1481 0.9798
vn -0.1152 -0.1186 0.9862
vn -0.1433 -0.1433 0.9792
vn -0.9862 -0.1187 -0.1150
vn -0.9908 -0.1066 -0.0835
vn -0.9918 -0.0904 -0.0904
vn 0.1186 0.9862 -0.1152
vn 0.1481 0.9798 -0.1342
vn 0.1433 0.9792 -0.1433
vn 0.1187 -0.1150 0.9862
vn 0.1066 -0.0835 0.9908
vn 0.0904 -0.0904 0.9918
vn 0.9862 0.1187 -0.1150
vn 0.9908 0.1066 -0.0835
vn 0.9918 0.0904 -0.0904
vn -0.1186 -0.9862 -0.1152
vn -0.1481 -0.9798 -0.1342
vn -0.1433 -0.9792 -0.1433
vn -0.1187 0.1150 0.9862
vn -0.1066 0.0835 0.9908
vn -0.0904 0.0904 0.9918
vn -0.9798 0.1342 -0.1481
vn -0.9862 0.1152 -0.1186
vn -0.9792 0.1433 -0.1433
vn 0.0835 -0.9908 -0.1066
vn 0.1150 -0.9862 -0.1187
vn 0.0904 -0.9918 -0.0904
vn 0.1342 0.1481 0.9798
vn 0.1152 0.1186 0.9862
vn 0.1433 0.1433 0.9792
vn 0.9798 -0.1342 0.1481
vn 0.9792 -0.1433 0.1433
vn 0.9862 -0.1152 0.1186
vn -0.0835 0.9908 0.1066
vn -0.0904 0.9918 0.0904
vn -0.1150 0.9862 0.1187
vn -0.1342 -0.1481 -0.9798
vn -0.1433 -0.1433 -0.9792
vn -0.1152 -0.1186 -0.9862
vn -0.9862 -0.1187 0.1150
vn -0.9918 -0.0904 0.0904
vn -0.9908 -0.1066 0.0835
vn 0.1186 0.9862 0.1152
vn 0.1433 0.9792 0.1433
vn 0.1481 0.9798 0.1342
vn 0.1187 -0.1150 -0.9862
vn 0.0904 -0.0904 -0.9918
vn 0.1066 -0.0835 -0.9908
vn 0.9862 0.1187 0.1150
vn 0.9918 0.0904 0.0904
vn 0.9908 0.1066 0.0835
vn -0.1186 -0.9862 0.1152
vn -0.1433 -0.9792 0.1433
vn -0.1481 -0.9798 0.1342
vn -0.1187 0.1150 -0.9862
vn -0.0904 0.0904 -0.9918
vn -0.1066 0.0835 -0.9908
vn -0.9798 0.1342 0.1481
vn -0.9792 0.1433 0.1433
vn -0.9862 0.1152 0.1186
vn 0.0835 -0.9908 0.1066
vn 0.0904 -0.9918 0.0904
vn 0.1150 -0.9862 0.1187
vn 0.1342 0.1481 -0.9798
vn 0.1433 0.1433 -0.9792
vn 0.1152 0.1186 -0.9862
vn 0.9862 -0.1187 -0.1150
vn 0.9918 -0.0904 -0.0904
vn 0.9908 -0.1066 -0.0835
vn -0.1186 0.9862 -0.1152
vn -0.1433 0.9792 -0.1433
vn -0.1481 0.9798 -0.1342
vn -0.1187 -0.1150 0.9862
vn -0.0904 -0.0904 0.9918
vn -0.1066 -0.0835 0.9908
vn -0.9798 -0.1342 -0.1481
vn -0.9792 -0.1433 -0.1433
vn -0.9862 -0.1152 -0.1186
vn 0.0835 0.9908 -0.1066
vn 0.0904 0.9918 -0.0904
vn 0.1150 0.9862 -0.1187
vn 0.1342 -0.1481 0.9798
vn 0.1433 -0.1433 0.9792
vn 0.1152 -0.1186 0.9862
vn 0.9798 0.1342 -0.1481
vn 0.9792 0.1433 -0.1433
vn 0.9862 0.1152 -0.1186
vn -0.0835 -0.9908 -0.1066
vn -0.0904 -0.9918 -0.0904
vn -0.1150 -0.9862 -0.1187
vn -0.1342 0.1481 0.9798
vn -0.1433 0.1433 0.9792
vn -0.1152 0.1186 0.9862
vn -0.9862 0.1187 -0.1150
vn -0.9918 0.0904 -0.0904
vn -0.9908 0.1066 -0.0835
vn 0.1186 -0.9862 -0.1152
vn 0.1433 -0.9792 -0.1433
vn 0.1481 -0.9798 -0.1342
vn 0.1187 0.1150 0.9862
vn 0.0904 0.0904 0.9918
vn 0.1066 0.0835 0.9908
usemtl None
s off
f 2/1/1 4/2/2 5/3/3
f 1/4/4 4/2/5 7/5/6
f 1/6/7 2/1/8 3/7/9
f 9/8/10 11/9/11 14/10/12
f 8/11/13 11/9/14 13/12/15
f 8/13/16 9/8/17 14/10/18
f 16/14/19 18/15/20 21/16/21
f 15/17/22 18/15/23 20/18/24
f 15/19/25 16/14/26 21/16/27
f 23/20/28 25/21/29 26/22/30
f 22/23/31 25/21/32 28/24/33
f 22/25/34 23/20/35 24/26/36
f 30/27/37 32/28/38 35/29/39
f 29/30/40 32/28/41 34/31/42
f 29/32/43 30/27/44 35/29/45
f 37/33/46 39/34/47 40/35/48
f 36/36/49 39/34/50 42/37/51
f 36/38/52 37/33/53 38/39/54
f 44/40/55 46/41/56 47/42/57
f 43/43/58 46/41/59 49/44/60
f 43/45/61 44/40/62 45/46/63
f 51/47/64 53/48/65 56/49/66
f 50/50/67 53/48/68 55/51/69
f 50/52/70 51/47/71 56/49/72
f 2/1/73 7/5/74 4/2/75
f 1/4/76 6/53/77 4/2/78
f 1/6/79 7/5/80 2/1/81
f 9/8/82 12/54/83 11/9/84
f 8/11/85 14/10/86 11/9/87
f 8/13/88 10/55/89 9/8/90
f 16/14/91 19/56/92 18/15/93
f 15/17/94 21/16/95 18/15/96
f 15/19/97 17/57/98 16/14/99
f 23/20/100 28/24/101 25/21/102
f 22/23/103 27/58/104 25/21/105
f 22/25/106 28/24/107 23/20/108
f 30/27/109 33/59/110 32/28/111
f 29/30/112 35/29/113 32/28/114
f 29/32/115 31/60/116 30/27/117
f 37/33/118 42/37/119 39/34/120
f 36/36/121 41/61/122 39/34/123
f 36/38/124 42/37/125 37/33/126
f 44/40/127 49/44/128 46/41/129
f 43/43/130 48/62/131 46/41/132
f 43/45/133 49/44/134 44/40/135
f 51/47/136 54/63/137 53/48/138
f 50/50/139 56/49/140 53/48/141
f 50/52/142 52/64/143 51/47/144
